<svg xmlns="http://www.w3.org/2000/svg" xmlns:xlink="http://www.w3.org/1999/xlink" viewBox="0 0 387.84 368.9"><defs><style>.cls-1{fill:url(#linear-gradient);}.cls-2{fill:#ffc640;}.cls-3{fill:url(#linear-gradient-2);}</style><linearGradient id="linear-gradient" x1="75.41" y1="298.46" x2="312.48" y2="298.46" gradientUnits="userSpaceOnUse"><stop offset="0" stop-color="#e89024"/><stop offset="0.48" stop-color="#f9d07a"/><stop offset="1" stop-color="#faa31d"/></linearGradient><linearGradient id="linear-gradient-2" x1="2.15" y1="146.88" x2="384.57" y2="146.88" xlink:href="#linear-gradient"/></defs><g id="Layer_2" data-name="Layer 2"><g id="Layer_1-2" data-name="Layer 1"><polygon class="cls-1" points="193.95 304.76 75.41 367.08 80.27 338.75 295.23 229.84 289.84 235.09 312.48 367.08 193.95 304.76"/><path class="cls-2" d="M289.85,233.68l-1.08,1.06,22.38,130.51L194,303.63,76.73,365.25l4.44-25.84L289.85,233.68M300.6,226l-11.66,5.91L80.26,337.63l-.89.45-.17,1-4.44,25.84-.68,4L77.67,367,194,305.89,310.22,367l3.59,1.88-.69-4-22.2-129.48.32-.31L300.6,226Z"/><polygon class="cls-3" points="89.94 282.33 191.64 229.46 191.96 186.56 98.05 235.09 91.18 228.39 131.84 207.6 131.84 168.63 64.95 202.83 2.15 141.61 134.68 122.35 193.95 2.26 253.21 122.35 384.57 141.44 88.37 291.51 89.94 282.33"/><path class="cls-2" d="M194,4.52l58.6,118.75L381.3,142,89.69,289.72,90.84,283l101.8-52.92.34-45.16-94.75,49-5.35-5.22,40-20.43V167l-67.7,34.61L4.3,142.3l131-19L194,4.52M194,0l-1.8,3.63L134,121.44,4,140.33l-4,.58,2.9,2.83L63.74,203l1,1,1.28-.66,64.79-33.12V207L92,226.87l-2.48,1.27,2,1.94,5.36,5.22,1,1,1.28-.66L191,188.21l-.3,40.64L89.92,281.22l-.88.45-.17,1-1.15,6.73-.67,3.92,3.54-1.8L382.21,143.76l5.63-2.86-6.25-.91L253.88,121.44,195.74,3.63,194,0Z"/></g></g></svg>